<svg xmlns="http://www.w3.org/2000/svg" width="31" height="31" viewBox="0 0 31 31">
  <g transform="translate(-1082 -645)">
    <path d="M2.914,0H28.086C29.7,0,31,1.682,31,3.758V27.242C31,29.318,29.7,31,28.086,31H2.914C1.3,31,0,29.318,0,27.242V3.758C0,1.682,1.3,0,2.914,0Z" transform="translate(1082 645)" fill="#9146ff"/>
    <g transform="translate(1086.962 651.581)">
      <g>
        <path d="M16.462,82.278H15.7a.369.369,0,0,0-.383.383v3.828A1.919,1.919,0,0,1,13.4,88.4H3.445a1.843,1.843,0,0,1-1.352-.562,1.843,1.843,0,0,1-.562-1.352V76.535a1.843,1.843,0,0,1,.562-1.352,1.843,1.843,0,0,1,1.352-.562h8.422a.368.368,0,0,0,.383-.383v-.766a.368.368,0,0,0-.383-.383H3.445A3.319,3.319,0,0,0,1.011,74.1,3.319,3.319,0,0,0,0,76.535v9.954a3.318,3.318,0,0,0,1.011,2.434,3.319,3.319,0,0,0,2.435,1.011H13.4a3.452,3.452,0,0,0,3.446-3.445V82.661a.369.369,0,0,0-.383-.383Z" transform="translate(0 -71.559)" fill="#f9f9f9"/>
        <path d="M208.584,36.774a.736.736,0,0,0-.538-.227h-6.125a.761.761,0,0,0-.538,1.3l2.106,2.106-7.8,7.8a.376.376,0,0,0,0,.55l1.364,1.364a.377.377,0,0,0,.55,0l7.8-7.8,2.106,2.106a.766.766,0,0,0,1.3-.538V37.313A.736.736,0,0,0,208.584,36.774Z" transform="translate(-187.373 -36.547)" fill="#f9f9f9"/>
      </g>
    </g>
  </g>
</svg>
