<svg xmlns="http://www.w3.org/2000/svg" width="31" height="31" viewBox="0 0 31 31">
  <g transform="translate(-7028 -5871)">
    <rect width="31" height="31" rx="4" transform="translate(7028 5871)" fill="#fe4a22"/>
    <g transform="translate(7034 5828.88)">
      <g transform="translate(6.821 58.452)">
        <g>
          <path d="M176,289.089Z" transform="translate(-176 -289.089)" fill="#fff"/>
        </g>
      </g>
      <g transform="translate(13.021 58.452)">
        <g>
          <path d="M336,289.089Z" transform="translate(-336 -289.089)" fill="#fff"/>
        </g>
      </g>
      <g transform="translate(0 49.119)">
        <g>
          <path d="M20,56.587A2.492,2.492,0,0,0,17.511,54.1a2.458,2.458,0,0,0-1.5.5,10.463,10.463,0,0,0-5.144-1.685l1.044-2.449,3.038.709a1.858,1.858,0,1,0,.289-1.211l-3.551-.83a.622.622,0,0,0-.716.362L9.532,52.883a10.672,10.672,0,0,0-5.584,1.686A2.438,2.438,0,0,0,2.489,54.1,2.492,2.492,0,0,0,0,56.587a2.465,2.465,0,0,0,1.258,2.154c-.01.11-.014.222-.014.335,0,3.431,3.908,6.223,8.712,6.223s8.712-2.792,8.712-6.223a2.753,2.753,0,0,0-.01-.289A2.465,2.465,0,0,0,20,56.587Zm-3.2-6.223a.622.622,0,1,1-.622.622.622.622,0,0,1,.622-.622ZM5.6,58.454A1.245,1.245,0,1,1,6.845,59.7,1.245,1.245,0,0,1,5.6,58.454Zm7.23,4.128a4.9,4.9,0,0,1-5.747,0,.622.622,0,1,1,.729-1.008,3.65,3.65,0,0,0,4.289,0,.622.622,0,1,1,.729,1.008Zm.238-2.884a1.242,1.242,0,1,1,.881-.363,1.245,1.245,0,0,1-.881.363Z" transform="translate(0 -49.119)" fill="#fff"/>
        </g>
      </g>
    </g>
  </g>
</svg>
