<svg xmlns="http://www.w3.org/2000/svg" width="31" height="31" viewBox="0 0 31 31">
  <g transform="translate(-7028 -5911)">
    <rect width="31" height="31" rx="4" transform="translate(7028 5911)" fill="#86328a"/>
    <g transform="translate(7033 5916.42)">
      <path d="M6.548,13.736H4.13a.345.345,0,0,0-.347.343V15.8a.352.352,0,0,0,.347.343H6.556v1.133H3.523a.885.885,0,0,1-.884-.884V13.479a.885.885,0,0,1,.893-.875H6.548v1.133Zm.875-3.175a.906.906,0,0,1-.91.9H2.63V10.3H5.906a.345.345,0,0,0,.347-.343V6.142A.345.345,0,0,0,5.906,5.8H4.156a.349.349,0,0,0-.251.1.342.342,0,0,0-.1.246V7.875a.341.341,0,0,0,.347.343h1.4V9.377H3.54a.9.9,0,0,1-.91-.892V5.532a.9.9,0,0,1,.91-.892H6.5a.9.9,0,0,1,.91.892v5.029Zm11.441,6.711H17.72V13.736h-.806a.345.345,0,0,0-.347.343v3.192H15.415V13.736h-.806a.345.345,0,0,0-.347.343v3.192H13.109V13.479A.885.885,0,0,1,14,12.6h4.863Zm.009-6.711a.906.906,0,0,1-.91.9H14.08V10.3h3.276a.345.345,0,0,0,.347-.343V6.142a.345.345,0,0,0-.347-.343H15.6a.345.345,0,0,0-.347.343V7.875a.341.341,0,0,0,.347.343H17V9.377H15a.9.9,0,0,1-.91-.892V5.532A.9.9,0,0,1,15,4.64h2.973a.9.9,0,0,1,.91.892v5.029ZM12.242,4.64H9.261a.9.9,0,0,0-.9.892V8.485a.891.891,0,0,0,.9.892h2.982a.9.9,0,0,0,.9-.892V5.532a.9.9,0,0,0-.9-.892m-.26,1.5V7.875a.345.345,0,0,1-.347.343H9.876a.345.345,0,0,1-.347-.343V6.15a.341.341,0,0,1,.347-.343h1.742a.341.341,0,0,1,.347.343ZM11.3,12.6H8.359a.885.885,0,0,0-.893.875v2.909a.887.887,0,0,0,.893.884H11.3a.887.887,0,0,0,.893-.884v-2.9A.885.885,0,0,0,11.3,12.6m-.26,1.476V15.8a.345.345,0,0,1-.347.343v-.009H8.966a.345.345,0,0,1-.347-.343V14.08a.346.346,0,0,1,.347-.343H10.7a.346.346,0,0,1,.347.343Z" transform="translate(-0.244 -0.376)" fill="#fff"/>
      <path d="M20.569,1.035A1.524,1.524,0,0,0,19.483.58H1.532A1.524,1.524,0,0,0,0,2.112V19.048A1.524,1.524,0,0,0,1.532,20.58H19.483a1.524,1.524,0,0,0,1.532-1.532V2.112a1.566,1.566,0,0,0-.447-1.086m0,18.021a1.077,1.077,0,0,1-1.086,1.086H1.532A1.077,1.077,0,0,1,.438,19.048V2.112A1.077,1.077,0,0,1,1.524,1.027H19.475A1.086,1.086,0,0,1,20.56,2.112V19.048Z" fill="#fff"/>
    </g>
  </g>
</svg>
