<svg width="33" height="33" viewBox="0 0 33 33" fill="none" xmlns="http://www.w3.org/2000/svg">
<path d="M29 0H4C1.79086 0 0 1.79086 0 4V29C0 31.2091 1.79086 33 4 33H29C31.2091 33 33 31.2091 33 29V4C33 1.79086 31.2091 0 29 0Z" fill="#08D7D7"/>
<path d="M8 11.5V13C8 13.5531 8.44687 14 9 14H9.5H11V11.5C11 10.6719 10.3281 10 9.5 10C8.67188 10 8 10.6719 8 11.5ZM11.5 10C11.8125 10.4187 12 10.9375 12 11.5V21C12 22.1031 12.8969 23 14 23C15.1031 23 16 22.1031 16 21V20.8344C16 19.8219 16.8219 19 17.8344 19H23V13C23 11.3438 21.6562 10 20 10H11.5ZM22.5 24C24.4344 24 26 22.4344 26 20.5C26 20.225 25.775 20 25.5 20H17.8344C17.375 20 17 20.3719 17 20.8344V21C17 22.6562 15.6562 24 14 24H19.5H22.5Z" fill="white"/>
</svg>
