<svg xmlns="http://www.w3.org/2000/svg" width="31" height="31" viewBox="0 0 31 31">
  <g transform="translate(-6920 -5911)">
    <rect width="31" height="31" rx="4" transform="translate(6920 5911)" fill="#107c10"/>
    <path d="M3.418,17.528a10,10,0,0,0,13.167,0c1.564-1.593-3.6-7.257-6.585-9.514C7.015,10.27,1.851,15.934,3.418,17.528Zm9.3-12C14.8,8,18.955,14.122,17.781,16.288a9.994,9.994,0,0,0-.756-13.4.254.254,0,0,0-.068-.035.686.686,0,0,0-.234-.038c-.493,0-1.654.362-4,2.7ZM3.045,2.855a.334.334,0,0,0-.072.035,9.995,9.995,0,0,0-.756,13.391C1.05,14.11,5.2,7.988,7.284,5.522c-2.35-2.344-3.513-2.7-4.005-2.7a.6.6,0,0,0-.234.038h0Zm6.955.1a11.735,11.735,0,0,0-4.371-1.5,2.29,2.29,0,0,0-1.267.283A9.925,9.925,0,0,1,9.987,0H10a9.979,9.979,0,0,1,5.638,1.738,2.267,2.267,0,0,0-1.267-.283A11.771,11.771,0,0,0,10,2.954Z" transform="translate(6926 5917)" fill="#fff"/>
  </g>
</svg>
