<svg xmlns="http://www.w3.org/2000/svg" width="31" height="31" viewBox="0 0 31 31">
  <g transform="translate(-6921 -5872)">
    <rect width="31" height="31" rx="4" transform="translate(6921 5872)" fill="#003791"/>
    <path d="M7.487,2.6V17.219L10.75,18.27V6.006c0-.575.253-.959.662-.826.53.151.633.678.633,1.254v4.9c2.034.994,3.635,0,3.635-2.627,0-2.7-.938-3.9-3.7-4.856A39.031,39.031,0,0,0,7.489,2.6h0Zm3.88,13.535,5.247-1.9c.6-.215.688-.521.2-.682a3.528,3.528,0,0,0-1.964.1L11.35,14.9V12.917l.2-.071a12.333,12.333,0,0,1,2.427-.512,10.4,10.4,0,0,1,4.531.551c1.54.5,1.7,1.227,1.313,1.727a3.763,3.763,0,0,1-1.352.863l-7.12,2.589V16.15l.017-.019Zm-9.861-.2C-.077,15.478-.338,14.542.38,14a8.315,8.315,0,0,1,1.8-.876l4.68-1.677v1.927L3.505,14.6c-.587.226-.687.527-.2.688a3.4,3.4,0,0,0,1.952-.1L6.873,14.6v1.728c-.1.024-.213.037-.326.061a10.393,10.393,0,0,1-5.031-.4l-.01-.057Z" transform="translate(6927 5877.404)" fill="#fff"/>
  </g>
</svg>
