<svg xmlns="http://www.w3.org/2000/svg" width="31" height="31" viewBox="0 0 31 31">
  <g transform="translate(-6880 -5911)">
    <rect width="31" height="31" rx="4" transform="translate(6880 5911)" fill="#e60012"/>
    <path d="M11.813,20h3.062A5.147,5.147,0,0,0,20,14.875V5.125A5.148,5.148,0,0,0,14.875,0H11.75a.134.134,0,0,0-.125.125v19.75C11.625,19.938,11.688,20,11.813,20ZM15.625,9a2,2,0,0,1,0,4,1.974,1.974,0,0,1-2-2,1.936,1.936,0,0,1,2-2ZM9.5,0H5.125A5.148,5.148,0,0,0,0,5.125v9.75A5.148,5.148,0,0,0,5.125,20H9.5a.134.134,0,0,0,.125-.124V.125A.133.133,0,0,0,9.5,0ZM8.063,18.376H5.125a3.5,3.5,0,0,1-3.5-3.5V5.125a3.5,3.5,0,0,1,3.5-3.5H8l.063,16.752ZM3.125,6A1.842,1.842,0,0,0,5,7.874,1.842,1.842,0,0,0,6.875,6,1.843,1.843,0,0,0,5,4.124,1.843,1.843,0,0,0,3.125,6Z" transform="translate(6886 5917)" fill="#fff"/>
  </g>
</svg>
