<svg xmlns="http://www.w3.org/2000/svg" width="31" height="31" viewBox="0 0 31 31">
  <g transform="translate(-7228 -5871)">
    <rect width="31" height="31" rx="4" transform="translate(7228 5871)"/>
    <path d="M10.075,11.664c-.78,1.61-1.847,3.79-2.378,4.773-.513.9-.939.776-1.277.024C5.249,13.694,2.843,8.841,1.712,6.12A2.942,2.942,0,0,0,1.2,5.171a1.736,1.736,0,0,0-.935-.226C.086,4.925,0,4.883,0,4.813V4.434L.043,4.4h4.5l.043.037V4.8c0,.1-.062.147-.187.147l-.47.026c-.4.024-.606.137-.606.363a1.442,1.442,0,0,0,.138.5c.9,2.2,4.015,8.768,4.015,8.768l.113.038L9.6,10.63l-.4-.89L7.816,7.02s-.265-.545-.357-.727c-.607-1.2-.593-1.265-1.206-1.348-.173-.019-.261-.042-.261-.124v-.39l.05-.038H9.619l.094.031V4.8c0,.088-.063.125-.189.125l-.257.039c-.66.051-.551.318-.113,1.185l1.318,2.71,1.465-2.92c.244-.533.194-.668.093-.789a.977.977,0,0,0-.677-.2l-.168-.017a.19.19,0,0,1-.121-.043.125.125,0,0,1-.056-.108V4.428l.051-.038c1.039-.007,3.369,0,3.369,0l.049.038v.363c0,.1-.049.148-.161.148-.538.025-.652.079-.853.366-.1.155-.312.491-.538.866L11.009,9.732l-.054.113,2.327,4.76.142.04,3.663-8.7c.128-.352.108-.6-.053-.746a.937.937,0,0,0-.714-.246l-.35-.013a.212.212,0,0,1-.127-.037.127.127,0,0,1-.06-.1V4.441l.049-.037h4.134L20,4.441V4.8c0,.1-.062.15-.174.15a2.136,2.136,0,0,0-1.2.351,2.128,2.128,0,0,0-.613.889s-3.369,7.715-4.522,10.283c-.437.839-.877.764-1.253-.026-.476-.976-1.477-3.155-2.2-4.758l.044-.03Z" transform="translate(7234 5875.613)" fill="#fff"/>
  </g>
</svg>
