<svg xmlns="http://www.w3.org/2000/svg" width="31" height="31" viewBox="0 0 31 31">
  <g transform="translate(-7070 -5871)">
    <rect width="31" height="31" rx="4" transform="translate(7070 5871)" fill="#3f5b94"/>
    <path d="M127,10.652h2.2v9.025a.323.323,0,0,0,.323.323h3.717a.323.323,0,0,0,.323-.323V10.695h2.52a.323.323,0,0,0,.32-.286l.383-3.323a.323.323,0,0,0-.32-.359h-2.9V4.644c0-.628.338-.946,1-.946h1.9a.323.323,0,0,0,.323-.323V.325A.322.322,0,0,0,136.462,0h-2.736a5.013,5.013,0,0,0-3.278,1.236A3.437,3.437,0,0,0,129.3,4.291V6.727H127a.323.323,0,0,0-.323.323v3.28A.323.323,0,0,0,127,10.652Z" transform="translate(6953.318 5877)" fill="#f5f7fa"/>
  </g>
</svg>
