<svg xmlns="http://www.w3.org/2000/svg" width="31" height="31" viewBox="0 0 31 31">
  <g transform="translate(-6987 -5871)">
    <rect width="31" height="31" rx="4" transform="translate(6987 5871)" fill="#59aaea"/>
    <path d="M19.682,36.426a7.92,7.92,0,0,1-1.379.465,4.3,4.3,0,0,0,1.135-1.807h0a.225.225,0,0,0-.33-.263h0A7.957,7.957,0,0,1,17,35.692a.537.537,0,0,1-.132.016.559.559,0,0,1-.369-.141,4.312,4.312,0,0,0-2.853-1.077,4.61,4.61,0,0,0-1.366.211,4.177,4.177,0,0,0-2.815,3.01,4.6,4.6,0,0,0-.1,1.588.154.154,0,0,1-.039.121.16.16,0,0,1-.119.054H9.19a11.306,11.306,0,0,1-7.771-4.152h0a.225.225,0,0,0-.37.029h0a4.317,4.317,0,0,0,.7,5.241,3.864,3.864,0,0,1-.983-.381h0a.225.225,0,0,0-.335.194h0a4.317,4.317,0,0,0,2.518,3.977h-.09a3.88,3.88,0,0,1-.726-.069h0a.225.225,0,0,0-.257.29h0a4.321,4.321,0,0,0,3.413,2.939A7.957,7.957,0,0,1,.832,48.9h-.5a.33.33,0,0,0-.323.249.342.342,0,0,0,.163.377,11.835,11.835,0,0,0,5.947,1.6A12,12,0,0,0,11.2,50.049a11.222,11.222,0,0,0,3.718-2.786A12.216,12.216,0,0,0,17.2,43.45a12.046,12.046,0,0,0,.774-4.173v-.066a.734.734,0,0,1,.275-.571,8.522,8.522,0,0,0,1.714-1.882h0a.225.225,0,0,0-.279-.331Z" transform="translate(6993 5843.509)" fill="#fff"/>
  </g>
</svg>
