<svg xmlns="http://www.w3.org/2000/svg" width="31" height="31" viewBox="0 0 31 31">
  <g transform="translate(-7188 -5871)">
    <rect width="31" height="31" rx="4" transform="translate(7188 5871)" fill="#e4405f"/>
    <g transform="translate(7194 5877)">
      <g>
        <g>
          <path d="M13.75,0H6.25A6.251,6.251,0,0,0,0,6.249v7.5A6.251,6.251,0,0,0,6.249,20h7.5A6.251,6.251,0,0,0,20,13.751V6.25A6.251,6.251,0,0,0,13.751,0Zm4.375,13.75a4.38,4.38,0,0,1-4.375,4.375H6.25A4.38,4.38,0,0,1,1.875,13.75V6.25A4.38,4.38,0,0,1,6.25,1.875h7.5A4.38,4.38,0,0,1,18.125,6.25Z" fill="#fff"/>
        </g>
      </g>
      <g transform="translate(4.778 4.778)">
        <g>
          <path d="M133.222,128a5.222,5.222,0,1,0,5.222,5.222A5.222,5.222,0,0,0,133.222,128Zm0,8.486a3.264,3.264,0,1,1,3.264-3.264,3.264,3.264,0,0,1-3.264,3.264Z" transform="translate(-128 -128)" fill="#fff"/>
        </g>
      </g>
      <g transform="translate(14.662 3.946)">
        <g>
          <circle cx="0.696" cy="0.696" r="0.696" transform="translate(0 0)" fill="#fff"/>
        </g>
      </g>
    </g>
  </g>
</svg>
