<svg xmlns="http://www.w3.org/2000/svg" width="31" height="31" viewBox="0 0 31 31">
  <g transform="translate(-7147 -5871)">
    <rect width="31" height="31" rx="4" transform="translate(7147 5871)" fill="red"/>
    <path d="M15.846,67.393H4.154A4.154,4.154,0,0,0,0,71.547v5.845a4.154,4.154,0,0,0,4.154,4.154H15.846A4.154,4.154,0,0,0,20,77.392V71.547A4.154,4.154,0,0,0,15.846,67.393Zm-2.809,7.361L7.568,77.362a.22.22,0,0,1-.314-.2v-5.38a.22.22,0,0,1,.319-.2l5.469,2.771a.22.22,0,0,1,0,.4Z" transform="translate(7153 5811.607)" fill="#fff"/>
  </g>
</svg>
