<svg xmlns="http://www.w3.org/2000/svg" xmlns:xlink="http://www.w3.org/1999/xlink" width="400" zoomAndPan="magnify" viewBox="0 0 300 74.999997" height="100" preserveAspectRatio="xMidYMid meet" version="1.0"><defs><g/><clipPath id="2ca56d4e88"><path d="M 75 0.359375 L 109 0.359375 L 109 45 L 75 45 Z M 75 0.359375 " clip-rule="nonzero"/></clipPath><clipPath id="d332761f8e"><path d="M 150 0.359375 L 166 0.359375 L 166 45 L 150 45 Z M 150 0.359375 " clip-rule="nonzero"/></clipPath><clipPath id="9fda572a7f"><rect x="0" width="204" y="0" height="57"/></clipPath><clipPath id="2d06883aea"><path d="M 6.75 7.621094 L 81.75 7.621094 L 81.75 69.121094 L 6.75 69.121094 Z M 6.75 7.621094 " clip-rule="nonzero"/></clipPath></defs><g transform="matrix(1, 0, 0, 1, 93, 9)"><g clip-path="url(#9fda572a7f)"><g fill="#ffffff" fill-opacity="1"><g transform="translate(0.631807, 44.534013)"><g><path d="M 5.921875 0 C 4.859375 0 3.972656 -0.351562 3.265625 -1.0625 C 2.484375 -1.769531 2.09375 -2.625 2.09375 -3.625 L 2.09375 -16.359375 C 2.09375 -18.515625 2.488281 -20.546875 3.28125 -22.453125 C 4.082031 -24.359375 5.207031 -26.046875 6.65625 -27.515625 C 8.070312 -28.972656 9.722656 -30.097656 11.609375 -30.890625 C 13.492188 -31.691406 15.507812 -32.09375 17.65625 -32.09375 C 19.8125 -32.09375 21.851562 -31.6875 23.78125 -30.875 C 25.707031 -30.070312 27.394531 -28.953125 28.84375 -27.515625 C 30.300781 -26.046875 31.4375 -24.351562 32.25 -22.4375 C 33.0625 -20.519531 33.46875 -18.492188 33.46875 -16.359375 L 33.46875 -3.625 C 33.46875 -2.601562 33.125 -1.75 32.4375 -1.0625 C 31.726562 -0.351562 30.863281 0 29.84375 0 C 28.800781 0 27.921875 -0.351562 27.203125 -1.0625 C 26.453125 -1.75 26.078125 -2.601562 26.078125 -3.625 L 26.078125 -16.328125 C 26.054688 -17.460938 25.820312 -18.539062 25.375 -19.5625 C 24.9375 -20.582031 24.328125 -21.46875 23.546875 -22.21875 C 22.773438 -23 21.878906 -23.601562 20.859375 -24.03125 C 19.835938 -24.46875 18.769531 -24.6875 17.65625 -24.6875 C 16.507812 -24.6875 15.441406 -24.472656 14.453125 -24.046875 C 13.460938 -23.628906 12.59375 -23.039062 11.84375 -22.28125 C 11.113281 -21.53125 10.539062 -20.640625 10.125 -19.609375 C 9.71875 -18.578125 9.515625 -17.492188 9.515625 -16.359375 L 9.515625 -3.625 C 9.515625 -2.601562 9.171875 -1.75 8.484375 -1.0625 C 7.773438 -0.351562 6.921875 0 5.921875 0 Z M 5.921875 0 "/></g></g></g><g fill="#ffffff" fill-opacity="1"><g transform="translate(37.156627, 44.534013)"><g><path d="M 17.796875 0.359375 C 15.597656 0.359375 13.5 -0.0546875 11.5 -0.890625 C 9.507812 -1.734375 7.757812 -2.898438 6.25 -4.390625 C 4.738281 -5.878906 3.5625 -7.609375 2.71875 -9.578125 C 1.882812 -11.554688 1.46875 -13.640625 1.46875 -15.828125 C 1.46875 -18.046875 1.882812 -20.144531 2.71875 -22.125 C 3.5625 -24.113281 4.738281 -25.851562 6.25 -27.34375 C 7.757812 -28.832031 9.507812 -29.992188 11.5 -30.828125 C 13.5 -31.671875 15.597656 -32.09375 17.796875 -32.09375 C 19.972656 -32.09375 22.046875 -31.679688 24.015625 -30.859375 C 25.992188 -30.046875 27.734375 -28.894531 29.234375 -27.40625 C 30.722656 -25.945312 31.898438 -24.226562 32.765625 -22.25 C 33.628906 -20.28125 34.082031 -18.207031 34.125 -16.03125 C 34.125 -14.96875 33.785156 -14.113281 33.109375 -13.46875 C 32.429688 -12.820312 31.5625 -12.5 30.5 -12.5 L 9.71875 -12.5 C 10.289062 -10.820312 11.320312 -9.4375 12.8125 -8.34375 C 14.25 -7.257812 15.910156 -6.71875 17.796875 -6.71875 C 18.773438 -6.71875 19.582031 -6.800781 20.21875 -6.96875 C 20.863281 -7.132812 21.488281 -7.394531 22.09375 -7.75 C 22.882812 -8.21875 23.601562 -8.453125 24.25 -8.453125 C 25.25 -8.453125 26.113281 -8.0625 26.84375 -7.28125 C 27.53125 -6.53125 27.875 -5.644531 27.875 -4.625 C 27.875 -3.894531 27.628906 -3.21875 27.140625 -2.59375 C 26.648438 -1.96875 25.960938 -1.4375 25.078125 -1 C 24.191406 -0.550781 23.117188 -0.210938 21.859375 0.015625 C 20.609375 0.242188 19.253906 0.359375 17.796875 0.359375 Z M 9.484375 -18.6875 L 26.546875 -18.6875 C 26.015625 -20.550781 24.972656 -22.082031 23.421875 -23.28125 C 21.847656 -24.457031 20.015625 -25.046875 17.921875 -25.046875 C 15.859375 -25.046875 14.050781 -24.4375 12.5 -23.21875 C 11.769531 -22.664062 11.144531 -21.992188 10.625 -21.203125 C 10.101562 -20.421875 9.722656 -19.582031 9.484375 -18.6875 Z M 9.484375 -18.6875 "/></g></g></g><g clip-path="url(#2ca56d4e88)"><g fill="#ffffff" fill-opacity="1"><g transform="translate(72.716766, 44.534013)"><g><path d="M 19.234375 0.359375 C 17.035156 0.359375 14.945312 -0.0507812 12.96875 -0.875 C 11 -1.707031 9.257812 -2.878906 7.75 -4.390625 C 6.238281 -5.878906 5.0625 -7.609375 4.21875 -9.578125 C 3.375 -11.554688 2.953125 -13.640625 2.953125 -15.828125 L 2.953125 -40.046875 C 2.953125 -41.085938 3.3125 -42 4.03125 -42.78125 C 4.757812 -43.507812 5.644531 -43.875 6.6875 -43.875 C 7.707031 -43.875 8.582031 -43.507812 9.3125 -42.78125 C 10 -42.070312 10.34375 -41.160156 10.34375 -40.046875 L 10.34375 -27.546875 C 11.09375 -28.804688 12.320312 -29.890625 14.03125 -30.796875 C 15.757812 -31.660156 17.492188 -32.09375 19.234375 -32.09375 C 21.398438 -32.09375 23.472656 -31.671875 25.453125 -30.828125 C 27.441406 -29.992188 29.179688 -28.832031 30.671875 -27.34375 C 32.148438 -25.832031 33.3125 -24.082031 34.15625 -22.09375 C 35 -20.113281 35.421875 -18.023438 35.421875 -15.828125 C 35.421875 -13.640625 35.003906 -11.5625 34.171875 -9.59375 C 33.347656 -7.632812 32.179688 -5.898438 30.671875 -4.390625 C 29.179688 -2.898438 27.441406 -1.734375 25.453125 -0.890625 C 23.472656 -0.0546875 21.398438 0.359375 19.234375 0.359375 Z M 19.234375 -7.046875 C 20.421875 -7.046875 21.554688 -7.273438 22.640625 -7.734375 C 23.734375 -8.191406 24.679688 -8.816406 25.484375 -9.609375 C 26.304688 -10.429688 26.9375 -11.375 27.375 -12.4375 C 27.820312 -13.5 28.046875 -14.628906 28.046875 -15.828125 C 28.046875 -17.023438 27.820312 -18.15625 27.375 -19.21875 C 26.9375 -20.289062 26.304688 -21.234375 25.484375 -22.046875 C 24.679688 -22.847656 23.734375 -23.472656 22.640625 -23.921875 C 21.554688 -24.378906 20.421875 -24.609375 19.234375 -24.609375 C 18.035156 -24.609375 16.890625 -24.378906 15.796875 -23.921875 C 14.710938 -23.472656 13.769531 -22.847656 12.96875 -22.046875 C 12.15625 -21.234375 11.519531 -20.289062 11.0625 -19.21875 C 10.601562 -18.15625 10.375 -17.023438 10.375 -15.828125 C 10.375 -14.628906 10.601562 -13.5 11.0625 -12.4375 C 11.519531 -11.375 12.15625 -10.429688 12.96875 -9.609375 C 13.769531 -8.816406 14.710938 -8.191406 15.796875 -7.734375 C 16.890625 -7.273438 18.035156 -7.046875 19.234375 -7.046875 Z M 19.234375 -7.046875 "/></g></g></g></g></g><g fill="#ffffff" fill-opacity="1"><g transform="translate(109.6075, 44.534013)"><g><path d="M 18.59375 0.359375 C 16.46875 0.359375 14.453125 -0.0390625 12.546875 -0.84375 C 10.640625 -1.65625 8.960938 -2.796875 7.515625 -4.265625 C 6.078125 -5.722656 4.957031 -7.398438 4.15625 -9.296875 C 3.351562 -11.191406 2.953125 -13.203125 2.953125 -15.328125 L 2.953125 -28.34375 C 2.953125 -29.363281 3.3125 -30.226562 4.03125 -30.9375 C 4.738281 -31.644531 5.601562 -32 6.625 -32 C 7.664062 -32 8.539062 -31.644531 9.25 -30.9375 C 9.976562 -30.207031 10.34375 -29.34375 10.34375 -28.34375 L 10.34375 -15.265625 C 10.34375 -14.109375 10.550781 -13.03125 10.96875 -12.03125 C 11.394531 -11.039062 11.984375 -10.164062 12.734375 -9.40625 C 13.492188 -8.65625 14.367188 -8.066406 15.359375 -7.640625 C 16.359375 -7.222656 17.4375 -7.015625 18.59375 -7.015625 C 20.851562 -7.015625 22.691406 -7.828125 24.109375 -9.453125 C 25.484375 -10.953125 26.171875 -12.910156 26.171875 -15.328125 L 26.171875 -28.34375 C 26.171875 -29.363281 26.550781 -30.226562 27.3125 -30.9375 C 28.082031 -31.664062 28.957031 -32.03125 29.9375 -32.03125 C 30.9375 -32.03125 31.800781 -31.664062 32.53125 -30.9375 C 33.21875 -30.207031 33.5625 -29.34375 33.5625 -28.34375 L 33.5625 -15.328125 C 33.5625 -13.179688 33.1875 -11.164062 32.4375 -9.28125 C 31.695312 -7.394531 30.65625 -5.722656 29.3125 -4.265625 C 27.957031 -2.796875 26.359375 -1.65625 24.515625 -0.84375 C 22.671875 -0.0390625 20.695312 0.359375 18.59375 0.359375 Z M 18.59375 0.359375 "/></g></g></g><g clip-path="url(#d332761f8e)"><g fill="#ffffff" fill-opacity="1"><g transform="translate(146.13232, 44.534013)"><g><path d="M 15.5 0 C 12.257812 0 9.609375 -1.007812 7.546875 -3.03125 C 6.503906 -4.03125 5.695312 -5.195312 5.125 -6.53125 C 4.550781 -7.875 4.265625 -9.34375 4.265625 -10.9375 L 4.265625 -39.890625 C 4.265625 -40.953125 4.601562 -41.835938 5.28125 -42.546875 C 5.945312 -43.253906 6.789062 -43.609375 7.8125 -43.609375 C 8.832031 -43.609375 9.734375 -43.253906 10.515625 -42.546875 C 11.265625 -41.785156 11.640625 -40.898438 11.640625 -39.890625 L 11.640625 -10.9375 C 11.640625 -9.769531 11.960938 -8.867188 12.609375 -8.234375 C 13.253906 -7.597656 14.160156 -7.269531 15.328125 -7.25 L 15.5 -7.25 C 16.539062 -7.25 17.414062 -6.894531 18.125 -6.1875 C 18.8125 -5.5 19.15625 -4.632812 19.15625 -3.59375 C 19.15625 -2.53125 18.8125 -1.664062 18.125 -1 C 17.4375 -0.332031 16.5625 0 15.5 0 Z M 15.5 0 "/></g></g></g></g></g><g fill="#ffffff" fill-opacity="1"><g transform="translate(166.024708, 44.534013)"><g><path d="M 17.703125 0.359375 C 15.523438 0.359375 13.445312 -0.0546875 11.46875 -0.890625 C 9.5 -1.734375 7.769531 -2.898438 6.28125 -4.390625 C 4.78125 -5.898438 3.613281 -7.632812 2.78125 -9.59375 C 1.945312 -11.5625 1.53125 -13.640625 1.53125 -15.828125 C 1.53125 -18.023438 1.953125 -20.113281 2.796875 -22.09375 C 3.640625 -24.082031 4.800781 -25.832031 6.28125 -27.34375 C 7.769531 -28.832031 9.5 -29.992188 11.46875 -30.828125 C 13.445312 -31.671875 15.523438 -32.09375 17.703125 -32.09375 C 19.890625 -32.09375 21.960938 -31.675781 23.921875 -30.84375 C 25.890625 -30.019531 27.628906 -28.851562 29.140625 -27.34375 C 30.628906 -25.832031 31.785156 -24.085938 32.609375 -22.109375 C 33.441406 -20.140625 33.859375 -18.046875 33.859375 -15.828125 L 33.859375 -3.5 C 33.859375 -2.445312 33.492188 -1.554688 32.765625 -0.828125 C 32.078125 -0.078125 31.191406 0.296875 30.109375 0.296875 C 29.242188 0.296875 28.5 0.0625 27.875 -0.40625 C 27.25 -0.882812 26.828125 -1.523438 26.609375 -2.328125 C 23.929688 -0.535156 20.960938 0.359375 17.703125 0.359375 Z M 17.703125 -7.015625 C 18.898438 -7.015625 20.035156 -7.238281 21.109375 -7.6875 C 22.179688 -8.144531 23.128906 -8.785156 23.953125 -9.609375 C 24.742188 -10.429688 25.363281 -11.375 25.8125 -12.4375 C 26.257812 -13.5 26.484375 -14.628906 26.484375 -15.828125 C 26.484375 -17.023438 26.257812 -18.15625 25.8125 -19.21875 C 25.363281 -20.289062 24.742188 -21.234375 23.953125 -22.046875 C 23.148438 -22.847656 22.207031 -23.472656 21.125 -23.921875 C 20.039062 -24.378906 18.898438 -24.609375 17.703125 -24.609375 C 16.523438 -24.609375 15.398438 -24.382812 14.328125 -23.9375 C 13.265625 -23.5 12.328125 -22.867188 11.515625 -22.046875 C 10.691406 -21.234375 10.054688 -20.289062 9.609375 -19.21875 C 9.171875 -18.15625 8.953125 -17.023438 8.953125 -15.828125 C 8.953125 -14.628906 9.171875 -13.5 9.609375 -12.4375 C 10.054688 -11.375 10.691406 -10.429688 11.515625 -9.609375 C 12.304688 -8.785156 13.234375 -8.144531 14.296875 -7.6875 C 15.367188 -7.238281 16.503906 -7.015625 17.703125 -7.015625 Z M 17.703125 -7.015625 "/></g></g></g></g></g><g clip-path="url(#2d06883aea)"><path fill="#ffffff" d="M -99.816406 59.835938 L -99.816406 203.839844 L 44.28125 203.738281 L 188.378906 203.640625 L 188.574219 -84.164062 L -99.816406 -84.164062 Z M -99.816406 59.933594 L -99.816406 203.640625 L 188.574219 203.445312 L 188.574219 -83.96875 L -99.816406 -83.773438 Z M -99.621094 60.03125 C -99.621094 139.230469 -99.578125 171.691406 -99.523438 132.160156 C -99.46875 92.632812 -99.46875 27.832031 -99.523438 -11.839844 C -99.578125 -51.511719 -99.621094 -19.167969 -99.621094 60.03125 M 187.988281 59.835938 C 187.988281 138.714844 188.03125 170.984375 188.085938 131.546875 C 188.140625 92.105469 188.140625 27.570312 188.085938 -11.871094 C 188.03125 -51.308594 187.988281 -19.042969 187.988281 59.835938 M 40.082031 9.011719 C 37.054688 9.585938 33.398438 11.246094 30.519531 13.359375 C 28.207031 15.058594 24.941406 19.316406 24.042969 21.796875 C 23.410156 23.546875 23.191406 23.742188 20.175781 25.234375 C 14.621094 27.988281 10.09375 33.625 8.617188 39.625 C 7.394531 44.59375 8.078125 50.433594 10.394531 54.84375 C 12.265625 58.394531 16.460938 62.480469 20.074219 64.257812 C 25.175781 66.769531 26.648438 66.914062 45.546875 66.742188 C 63.125 66.585938 63.238281 66.574219 67.417969 64.679688 C 71.761719 62.703125 75.78125 58.859375 77.925781 54.625 C 81.046875 48.464844 81.066406 41.480469 77.980469 35.085938 C 76.148438 31.285156 71.820312 26.996094 67.996094 25.183594 C 65.175781 23.851562 65.132812 23.808594 63.832031 21 C 59.824219 12.371094 49.601562 7.210938 40.082031 9.011719 M 40.332031 15.28125 C 37.128906 16.179688 34.558594 17.757812 32.460938 20.109375 C 31.417969 21.28125 30.5625 22.359375 30.5625 22.507812 C 30.5625 22.65625 31.394531 22.890625 32.410156 23.035156 C 37.414062 23.738281 41.65625 25.78125 45.253906 29.226562 C 47.257812 31.144531 47.488281 32.828125 45.953125 34.363281 C 44.523438 35.792969 43.464844 35.5625 40.460938 33.167969 C 37.273438 30.632812 34.457031 29.464844 30.859375 29.1875 C 22.019531 28.511719 14.21875 35.816406 14.21875 44.769531 C 14.21875 51.566406 18.851562 57.816406 25.398438 59.835938 C 27.75 60.5625 29 60.613281 43.933594 60.605469 C 53.078125 60.601562 60.664062 60.429688 61.617188 60.210938 C 64.582031 59.527344 66.894531 58.171875 69.53125 55.570312 C 72.980469 52.171875 73.929688 49.824219 73.941406 44.660156 C 73.949219 41.300781 73.835938 40.71875 72.714844 38.34375 C 70.632812 33.9375 66.492188 30.582031 61.796875 29.488281 C 60.304688 29.140625 59.753906 28.832031 59.753906 28.34375 C 59.753906 27.101562 58.472656 23.851562 57.183594 21.820312 C 53.796875 16.480469 46.351562 13.59375 40.332031 15.28125 M 28.226562 37.265625 C 27.636719 37.855469 27.449219 38.5625 27.449219 40.183594 L 27.449219 42.324219 L 25.394531 42.324219 C 22.742188 42.324219 21.613281 43.078125 21.613281 44.851562 C 21.613281 46.625 22.742188 47.382812 25.394531 47.382812 L 27.449219 47.382812 L 27.449219 49.523438 C 27.449219 52.722656 29.140625 54.09375 31.253906 52.613281 C 31.980469 52.105469 32.121094 51.644531 32.121094 49.742188 L 32.121094 47.476562 L 34.511719 47.304688 C 36.410156 47.167969 37.054688 46.945312 37.625 46.242188 C 38.585938 45.054688 38.535156 44.421875 37.390625 43.277344 C 36.605469 42.496094 36.050781 42.324219 34.277344 42.324219 L 32.121094 42.324219 L 32.121094 40.046875 C 32.121094 38.339844 31.941406 37.613281 31.40625 37.128906 C 30.449219 36.265625 29.175781 36.316406 28.226562 37.265625 M 56.726562 37.089844 C 55.613281 37.871094 55.523438 40.339844 56.570312 41.289062 C 57.683594 42.292969 59.554688 42.113281 60.503906 40.910156 C 61.5625 39.5625 61.519531 38.609375 60.351562 37.441406 C 59.257812 36.34375 57.96875 36.21875 56.726562 37.089844 M 51.703125 42.328125 C 49.046875 43.386719 49.828125 47.511719 52.679688 47.511719 C 54.316406 47.511719 55.472656 46.410156 55.472656 44.851562 C 55.472656 42.933594 53.5 41.613281 51.703125 42.328125 M 63.253906 42.214844 C 60.300781 43.28125 60.882812 47.378906 64.003906 47.46875 C 66.328125 47.535156 67.589844 44.925781 66.078125 43.179688 C 65.316406 42.296875 64.136719 41.894531 63.253906 42.214844 M 56.480469 48.511719 C 55.453125 49.644531 55.78125 52.070312 57.054688 52.78125 C 59.890625 54.367188 62.613281 50.6875 60.308594 48.382812 C 59.457031 47.53125 57.300781 47.605469 56.480469 48.511719 M -13.027344 87.273438 L -13.027344 96.808594 L -9.132812 96.808594 L -9.132812 77.738281 L -13.027344 77.738281 Z M 37.957031 80.503906 C 37.957031 83.007812 37.894531 83.238281 37.277344 82.9375 C 36.902344 82.753906 35.355469 82.605469 33.839844 82.605469 C 31.402344 82.605469 30.914062 82.734375 29.613281 83.726562 C 25.027344 87.226562 26.035156 94.339844 31.433594 96.597656 C 33.355469 97.402344 35.148438 97.355469 36.90625 96.460938 C 38.15625 95.824219 38.398438 95.800781 38.671875 96.296875 C 38.882812 96.671875 39.453125 96.824219 40.324219 96.742188 L 41.65625 96.617188 L 41.757812 87.175781 L 41.863281 77.738281 L 37.957031 77.738281 Z M -27.707031 78.773438 C -30.035156 79.597656 -32.660156 82.613281 -33.273438 85.171875 C -34.773438 91.429688 -30.605469 96.917969 -24.3125 96.964844 C -19.976562 96.996094 -16.554688 94.449219 -15.601562 90.484375 C -15.351562 89.429688 -15.371094 89.414062 -17.261719 89.414062 C -19.042969 89.414062 -19.234375 89.511719 -19.992188 90.796875 C -20.8125 92.1875 -22.753906 93.308594 -24.339844 93.308594 C -27.046875 93.308594 -29.371094 90.714844 -29.371094 87.695312 C -29.371094 84.402344 -27.25 82.023438 -24.3125 82.023438 C -22.648438 82.023438 -20.558594 83.234375 -19.960938 84.550781 C -19.566406 85.414062 -19.28125 85.523438 -17.414062 85.523438 C -15.410156 85.523438 -15.320312 85.480469 -15.578125 84.648438 C -16.109375 82.921875 -16.890625 81.746094 -18.421875 80.363281 C -20.871094 78.152344 -24.296875 77.5625 -27.707031 78.773438 M 51.226562 78.558594 C 44.269531 80.671875 42.34375 89.949219 47.859375 94.792969 C 51.5 97.988281 57.941406 97.574219 60.691406 93.96875 C 61.984375 92.273438 62.867188 90.113281 62.867188 88.636719 L 62.867188 87.445312 L 58.097656 87.554688 L 53.332031 87.664062 L 53.207031 88.734375 L 53.085938 89.804688 L 56.613281 89.804688 C 59.175781 89.804688 60.140625 89.9375 60.140625 90.289062 C 60.136719 91.308594 58.621094 93.203125 57.308594 93.824219 C 55.5625 94.652344 52.28125 94.660156 50.554688 93.839844 C 47.65625 92.464844 46.304688 87.539062 47.902344 84.171875 C 49.949219 79.859375 56.851562 79.382812 59.464844 83.375 C 60.25 84.578125 61.878906 85.472656 62.375 84.976562 C 63.222656 84.128906 60.535156 80.492188 58.164062 79.28125 C 56.371094 78.363281 53.015625 78.015625 51.226562 78.558594 M -2.515625 83.132812 C -6.628906 85.339844 -7.738281 90.933594 -4.738281 94.347656 C -1.789062 97.710938 2.953125 98.085938 6.222656 95.214844 C 9.976562 91.917969 9.257812 85.421875 4.890625 83.195312 C 2.875 82.167969 -0.65625 82.136719 -2.515625 83.132812 M 69.121094 83.070312 C 65.621094 84.910156 64.175781 89.402344 65.929688 92.992188 C 67.800781 96.832031 73.140625 98.179688 76.535156 95.667969 C 77.921875 94.644531 78.042969 94.65625 78.042969 95.835938 C 78.042969 96.617188 78.238281 96.808594 79.015625 96.808594 L 79.988281 96.808594 L 79.988281 82.800781 L 79.015625 82.800781 C 78.304688 82.800781 78.042969 83.007812 78.042969 83.578125 C 78.042969 84.558594 77.886719 84.550781 76.464844 83.496094 C 74.859375 82.3125 70.988281 82.085938 69.121094 83.070312 M 111.707031 83.058594 C 109.90625 84.011719 109.132812 84.804688 108.355469 86.496094 C 106.703125 90.097656 108.179688 94.488281 111.65625 96.296875 C 113.371094 97.1875 116.589844 97.070312 118.410156 96.046875 C 119.855469 95.234375 121.242188 93.527344 121.242188 92.566406 C 121.242188 91.746094 119.582031 92.148438 118.289062 93.289062 C 116.621094 94.75 114.800781 95.109375 112.949219 94.335938 C 111.726562 93.824219 109.964844 91.785156 109.960938 90.875 C 109.957031 90.714844 112.671875 90.582031 115.988281 90.582031 C 122.742188 90.582031 122.4375 90.742188 121.585938 87.664062 C 120.988281 85.507812 119.886719 84.085938 118.113281 83.179688 C 116.289062 82.25 113.34375 82.191406 111.707031 83.058594 M 11.171875 88.027344 C 11.3125 93.84375 11.628906 94.679688 14.253906 96.21875 C 17.058594 97.863281 21.363281 96.972656 23.320312 94.351562 C 24.042969 93.386719 24.15625 92.613281 24.269531 88.027344 L 24.394531 82.800781 L 20.445312 82.800781 L 20.445312 87.1875 C 20.445312 92.460938 20.066406 93.308594 17.71875 93.308594 C 15.371094 93.308594 14.996094 92.460938 14.996094 87.1875 L 14.996094 82.800781 L 11.042969 82.800781 Z M 69.820312 85.398438 C 66.507812 87.457031 66.921875 92.828125 70.511719 94.328125 C 74.367188 95.9375 78.492188 92.417969 77.480469 88.382812 C 77.335938 87.8125 76.636719 86.761719 75.917969 86.046875 C 74.796875 84.921875 74.359375 84.746094 72.730469 84.753906 C 71.679688 84.761719 70.390625 85.046875 69.820312 85.398438 M 111.988281 85.351562 C 111.511719 85.6875 110.859375 86.464844 110.539062 87.082031 L 109.960938 88.203125 L 114.628906 88.320312 C 118.957031 88.433594 119.300781 88.390625 119.300781 87.722656 C 119.296875 87.328125 118.753906 86.496094 118.089844 85.875 C 117.078125 84.929688 116.550781 84.746094 114.867188 84.746094 C 113.675781 84.746094 112.503906 84.992188 111.988281 85.351562 M -1.378906 87.050781 C -2.871094 88.542969 -2.921875 90.433594 -1.511719 92.109375 C -0.675781 93.101562 -0.21875 93.308594 1.144531 93.308594 C 3.980469 93.308594 5.648438 90.480469 4.328125 87.925781 C 3.117188 85.582031 0.488281 85.179688 -1.378906 87.050781 M 32.441406 86.507812 C 31.238281 87.164062 30.414062 89.265625 30.785156 90.746094 C 31.410156 93.238281 35.148438 94.203125 37.003906 92.351562 C 37.730469 91.625 37.957031 90.984375 37.957031 89.660156 C 37.957031 88.203125 37.765625 87.769531 36.761719 86.921875 C 35.425781 85.796875 34 85.660156 32.441406 86.507812 M -7.964844 103.433594 C -7.964844 103.652344 -7.527344 104.523438 -6.992188 105.371094 C -6.457031 106.21875 -6.019531 107.433594 -6.019531 108.066406 C -6.019531 108.699219 -5.84375 109.324219 -5.632812 109.457031 C -5.402344 109.601562 -5.242188 109.183594 -5.242188 108.453125 C -5.242188 107.753906 -4.734375 106.382812 -4.074219 105.3125 C -2.785156 103.214844 -2.726562 103.035156 -3.308594 103.035156 C -3.53125 103.035156 -4.074219 103.648438 -4.515625 104.398438 C -4.957031 105.148438 -5.4375 105.761719 -5.582031 105.761719 C -5.726562 105.761719 -6.171875 105.148438 -6.578125 104.398438 C -7.285156 103.085938 -7.964844 102.613281 -7.964844 103.433594 M 22.195312 103.425781 C 21.976562 103.78125 22.742188 103.957031 23.460938 103.71875 C 23.621094 103.664062 23.839844 104.933594 23.945312 106.539062 C 24.183594 110.109375 24.875 110.238281 25.035156 106.742188 C 25.140625 104.425781 25.230469 104.191406 26.101562 103.972656 C 26.625 103.839844 26.957031 103.574219 26.839844 103.382812 C 26.546875 102.90625 22.492188 102.945312 22.195312 103.425781 M 44.574219 106.34375 C 44.574219 108.289062 44.734375 109.652344 44.964844 109.652344 C 45.191406 109.652344 45.351562 108.289062 45.351562 106.34375 C 45.351562 104.398438 45.191406 103.035156 44.964844 103.035156 C 44.734375 103.035156 44.574219 104.398438 44.574219 106.34375 M 48.464844 103.425781 C 48.464844 103.640625 48.726562 103.816406 49.050781 103.816406 C 49.371094 103.816406 49.632812 103.640625 49.632812 103.425781 C 49.632812 103.210938 49.371094 103.035156 49.050781 103.035156 C 48.726562 103.035156 48.464844 103.210938 48.464844 103.425781 M 71.507812 106.210938 C 71.621094 109.472656 72.285156 110.585938 72.519531 107.910156 C 72.632812 106.632812 72.730469 106.539062 73.980469 106.539062 C 75.136719 106.539062 75.320312 106.667969 75.320312 107.480469 C 75.320312 108.753906 75.714844 109.695312 76.140625 109.433594 C 76.332031 109.316406 76.488281 107.8125 76.488281 106.09375 C 76.488281 103.769531 76.363281 103.011719 76 103.132812 C 75.710938 103.230469 75.566406 103.789062 75.640625 104.527344 C 75.765625 105.730469 75.726562 105.761719 74.207031 105.761719 C 72.738281 105.761719 72.636719 105.6875 72.523438 104.527344 C 72.457031 103.847656 72.175781 103.21875 71.898438 103.125 C 71.507812 103 71.421875 103.691406 71.507812 106.210938 M -0.824219 105.597656 C -1.664062 106.878906 -1.1875 108.414062 0.308594 109.25 C 1.265625 109.785156 1.484375 109.785156 2.445312 109.25 C 3.753906 108.523438 4.132812 106.242188 3.117188 105.226562 C 2.101562 104.207031 -0.0429688 104.410156 -0.824219 105.597656 M 6.527344 106.605469 C 6.804688 109.503906 8.613281 110.585938 10.324219 108.875 C 11.304688 107.894531 11.453125 104.59375 10.519531 104.59375 C 10.082031 104.59375 9.9375 105.066406 9.9375 106.496094 C 9.9375 107.898438 9.769531 108.464844 9.304688 108.644531 C 8.265625 109.042969 7.601562 108.125 7.601562 106.296875 C 7.601562 104.984375 7.457031 104.59375 6.96875 104.59375 C 6.441406 104.59375 6.367188 104.925781 6.527344 106.605469 M 14.21875 107.296875 C 14.21875 110.136719 14.871094 110.152344 15.066406 107.316406 C 15.171875 105.84375 15.328125 105.546875 16.066406 105.441406 C 17.488281 105.238281 17.0625 104.585938 15.578125 104.691406 L 14.21875 104.789062 Z M 29.226562 105.207031 C 28.890625 105.542969 28.617188 106.414062 28.617188 107.140625 C 28.617188 108.941406 30.109375 109.996094 31.769531 109.367188 C 32.46875 109.105469 32.898438 109.085938 32.898438 109.320312 C 32.898438 109.527344 33.074219 109.589844 33.289062 109.457031 C 33.5 109.328125 33.675781 108.214844 33.675781 106.992188 L 33.675781 104.761719 L 31.757812 104.679688 C 30.441406 104.621094 29.644531 104.789062 29.226562 105.207031 M 37.050781 105.300781 C 36.230469 106.207031 36.222656 107.28125 37.03125 108.4375 C 37.53125 109.148438 37.941406 109.304688 38.992188 109.183594 C 40.03125 109.0625 40.296875 109.160156 40.207031 109.632812 C 40.058594 110.398438 38.484375 110.640625 37.730469 110.015625 C 36.96875 109.382812 36.546875 109.863281 37.1875 110.636719 C 37.519531 111.035156 38.179688 111.207031 39.082031 111.132812 C 40.832031 110.984375 41.445312 109.882812 41.453125 106.894531 L 41.460938 104.71875 L 39.578125 104.652344 C 38.1875 104.601562 37.53125 104.769531 37.050781 105.300781 M 48.464844 106.90625 C 48.464844 108.175781 48.640625 109.324219 48.855469 109.457031 C 49.097656 109.609375 49.242188 108.75 49.242188 107.144531 C 49.242188 105.703125 49.074219 104.59375 48.855469 104.59375 C 48.640625 104.59375 48.464844 105.625 48.464844 106.90625 M 52.746094 107.296875 C 52.746094 110.136719 53.402344 110.152344 53.597656 107.316406 C 53.699219 105.859375 53.863281 105.546875 54.570312 105.445312 C 55.59375 105.300781 56.351562 106.507812 56.195312 108.023438 C 56.132812 108.597656 56.253906 109.15625 56.457031 109.265625 C 57 109.546875 57.148438 106.328125 56.640625 105.371094 C 56.285156 104.710938 55.894531 104.585938 54.476562 104.675781 L 52.746094 104.789062 Z M 60.394531 105.304688 C 59.453125 106.347656 59.566406 108.3125 60.617188 109.046875 C 61.710938 109.8125 62.464844 109.8125 63.5625 109.042969 C 64.726562 108.226562 64.253906 107.542969 63.066406 108.324219 C 62.347656 108.792969 61.957031 108.832031 61.335938 108.5 C 59.984375 107.777344 60.429688 107.316406 62.476562 107.316406 C 64.140625 107.316406 64.421875 107.207031 64.421875 106.566406 C 64.421875 104.757812 61.671875 103.898438 60.394531 105.304688 M 79.816406 105.457031 C 78.972656 106.667969 79.0625 107.925781 80.0625 108.859375 C 81.085938 109.808594 81.855469 109.859375 83.015625 109.046875 C 84.277344 108.164062 84.074219 107.585938 82.75 108.273438 C 81.703125 108.8125 81.542969 108.800781 80.703125 108.101562 L 79.796875 107.34375 L 82.035156 107.332031 C 84.453125 107.316406 84.738281 106.992188 83.664062 105.457031 C 83.242188 104.855469 82.664062 104.59375 81.742188 104.59375 C 80.820312 104.59375 80.242188 104.855469 79.816406 105.457031 M 86.996094 107.265625 C 86.996094 110.023438 87.632812 110.207031 87.84375 107.511719 C 87.9375 106.339844 88.183594 105.859375 88.84375 105.570312 C 90.128906 105.007812 89.914062 104.609375 88.359375 104.667969 L 86.996094 104.71875 Z M 92.308594 105.304688 C 91.4375 106.269531 91.5 107.929688 92.445312 108.875 C 93.421875 109.851562 94.433594 109.863281 95.613281 108.90625 C 96.726562 108.003906 96.335938 107.390625 95.167969 108.207031 C 94.238281 108.859375 92.996094 108.6875 92.679688 107.863281 C 92.515625 107.4375 92.933594 107.316406 94.625 107.316406 C 96.675781 107.316406 96.765625 107.277344 96.515625 106.441406 C 95.96875 104.597656 93.542969 103.941406 92.308594 105.304688 M 0.078125 105.632812 C -0.503906 106.210938 -0.164062 108.078125 0.59375 108.484375 C 2.230469 109.359375 3.785156 107.160156 2.464844 105.839844 C 1.960938 105.335938 0.5 105.207031 0.078125 105.632812 M 29.789062 105.949219 C 29.164062 106.703125 29.582031 108.34375 30.460938 108.570312 C 31.429688 108.820312 32.0625 108.539062 32.542969 107.640625 C 33.363281 106.113281 30.90625 104.605469 29.789062 105.949219 M 37.582031 106.128906 C 36.75 107.679688 38.332031 109.097656 39.835938 108.144531 C 40.132812 107.957031 40.300781 107.332031 40.226562 106.691406 C 40.125 105.800781 39.882812 105.542969 39.054688 105.445312 C 38.316406 105.359375 37.882812 105.5625 37.582031 106.128906 M 60.917969 105.957031 C 60.503906 106.460938 60.664062 106.539062 62.085938 106.539062 C 63.511719 106.539062 63.671875 106.460938 63.253906 105.957031 C 62.988281 105.632812 62.460938 105.371094 62.085938 105.371094 C 61.710938 105.371094 61.1875 105.632812 60.917969 105.957031 M 80.65625 105.613281 C 80.054688 106.214844 80.445312 106.539062 81.773438 106.539062 C 82.714844 106.539062 83.117188 106.382812 83.007812 106.054688 C 82.828125 105.507812 81.085938 105.183594 80.65625 105.613281 M 92.847656 105.9375 C 92.410156 106.464844 92.550781 106.539062 93.984375 106.539062 C 95.121094 106.539062 95.574219 106.390625 95.460938 106.054688 C 95.222656 105.324219 93.421875 105.246094 92.847656 105.9375 " fill-opacity="1" fill-rule="evenodd"/></g></svg>